<svg xmlns="http://www.w3.org/2000/svg" viewBox="0 0 512 512">
<defs>
<linearGradient id="bg" x1="0" y1="0" x2="1" y2="1"><stop offset="0" stop-color="#5a4ff0"/><stop offset="1" stop-color="#2d2391"/></linearGradient>
<linearGradient id="bubble" x1="0" y1="0" x2="0" y2="1"><stop offset="0" stop-color="#ffb02e"/><stop offset="1" stop-color="#ff7417"/></linearGradient>
<clipPath id="tile"><rect width="512" height="512" rx="112"/></clipPath>
</defs>
<g clip-path="url(#tile)">
<rect width="512" height="512" fill="url(#bg)"/>
<path d="M150 84 H300 L366 150 V372 Q366 392 346 392 H150 Q130 392 130 372 V104 Q130 84 150 84 Z" transform="translate(8 14)" fill="#1b1260" opacity="0.35"/>
<path d="M150 84 H300 L366 150 V372 Q366 392 346 392 H150 Q130 392 130 372 V104 Q130 84 150 84 Z" fill="#fffaf2"/>
<path d="M300 84 V132 Q300 150 318 150 H366 Z" fill="#e3dcf7"/>
<path d="M164 196 H268" stroke="#cfc9f5" stroke-width="22" stroke-linecap="round"/>
<path d="M164 236 H236" stroke="#cfc9f5" stroke-width="22" stroke-linecap="round"/>
<path d="M214 262 H418 Q448 262 448 292 V378 Q448 408 418 408 H262 L214 446 L222 408 H214 Q184 408 184 378 V292 Q184 262 214 262 Z" transform="translate(6 12)" fill="#1b1260" opacity="0.35"/>
<path d="M214 262 H418 Q448 262 448 292 V378 Q448 408 418 408 H262 L214 446 L222 408 H214 Q184 408 184 378 V292 Q184 262 214 262 Z" fill="url(#bubble)"/>
<circle cx="256" cy="335" r="20" fill="#ffffff"/>
<circle cx="316" cy="335" r="20" fill="#ffffff"/>
<circle cx="376" cy="335" r="20" fill="#ffffff"/>
</g>
</svg>
